<?xml version="1.0" encoding="UTF-8"?>
<svg xmlns="http://www.w3.org/2000/svg" viewBox="0 0 841.9 595.3">
  <g fill="#61DAFB">
    <path d="M666.3 296.5c0 76.1-61.7 137.8-137.8 137.8S390.7 372.6 390.7 296.5 452.4 158.7 528.5 158.7s137.8 61.8 137.8 137.8zm-28.3 0c0-61.5-49.9-111.4-111.5-111.4s-111.4 49.9-111.4 111.4 49.9 111.4 111.4 111.4 111.5-49.9 111.5-111.4z"/>
    <path d="M520.5 78.1a21.9 21.9 0 0 0-31.9 4.2L391.5 215.5a21.9 21.9 0 0 0 4.2 31.9l61.9 44.5a21.9 21.9 0 0 0 31.9-4.2l97.2-133.2a21.9 21.9 0 0 0-4.2-31.9zm-62.4 100.7l-31.9 43.8-31.9-43.8 31.9-43.8 31.9 43.8z"/>
    <path d="M276.1 78.1a21.9 21.9 0 0 0-31.9 4.2L145.1 215.5a21.9 21.9 0 0 0 4.2 31.9l61.9 44.5a21.9 21.9 0 0 0 31.9-4.2l97.2-133.2a21.9 21.9 0 0 0-4.2-31.9zm-62.4 100.7l-31.9 43.8-31.9-43.8 31.9-43.8 31.9 43.8z"/>
    <path d="M419.2 527.3a21.9 21.9 0 0 0-31.9 4.2L288.2 664.7a21.9 21.9 0 0 0 4.2 31.9l61.9 44.5a21.9 21.9 0 0 0 31.9-4.2l97.2-133.2a21.9 21.9 0 0 0-4.2-31.9zm-62.4 100.7l-31.9 43.8-31.9-43.8 31.9-43.8 31.9 43.8z"/>
  </g>
</svg>
